<svg width="25" height="24" viewBox="0 0 25 24" fill="none" xmlns="http://www.w3.org/2000/svg">
<path d="M8.59944 22H16.5994C20.6194 22 21.3394 20.39 21.5494 18.43L22.2994 10.43C22.5694 7.99 21.8694 6 17.5994 6H7.59944C3.32944 6 2.62944 7.99 2.89944 10.43L3.64944 18.43C3.85944 20.39 4.57944 22 8.59944 22Z" stroke="white" stroke-width="1.5" stroke-miterlimit="10" stroke-linecap="round" stroke-linejoin="round"/>
<path d="M8.59961 6V5.2C8.59961 3.43 8.59961 2 11.7996 2H13.3996C16.5996 2 16.5996 3.43 16.5996 5.2V6" stroke="white" stroke-width="1.5" stroke-miterlimit="10" stroke-linecap="round" stroke-linejoin="round"/>
<path d="M14.5996 13V14C14.5996 14.01 14.5996 14.01 14.5996 14.02C14.5996 15.11 14.5896 16 12.5996 16C10.6196 16 10.5996 15.12 10.5996 14.03V13C10.5996 12 10.5996 12 11.5996 12H13.5996C14.5996 12 14.5996 12 14.5996 13Z" stroke="white" stroke-width="1.5" stroke-miterlimit="10" stroke-linecap="round" stroke-linejoin="round"/>
<path d="M22.2496 11C19.9396 12.68 17.2996 13.68 14.5996 14.02" stroke="white" stroke-width="1.5" stroke-miterlimit="10" stroke-linecap="round" stroke-linejoin="round"/>
<path d="M3.21973 11.2695C5.46973 12.8095 8.00973 13.7395 10.5997 14.0295" stroke="white" stroke-width="1.5" stroke-miterlimit="10" stroke-linecap="round" stroke-linejoin="round"/>
</svg>
