<svg width="16" height="17" viewBox="0 0 16 17" fill="none" xmlns="http://www.w3.org/2000/svg">
<g clip-path="url(#clip0_3211_5937)">
<path d="M15.75 8.97778C15.75 4.69653 12.2812 1.22778 8 1.22778C3.71875 1.22778 0.25 4.69653 0.25 8.97778C0.25 12.8459 3.08406 16.0522 6.78906 16.634V11.2181H4.82031V8.97778H6.78906V7.27028C6.78906 5.3281 7.94531 4.25528 9.71625 4.25528C10.5644 4.25528 11.4513 4.40653 11.4513 4.40653V6.31278H10.4738C9.51125 6.31278 9.21094 6.91028 9.21094 7.5231V8.97778H11.3603L11.0166 11.2181H9.21094V16.634C12.9159 16.0522 15.75 12.8459 15.75 8.97778Z" fill="#0D2640"/>
</g>
<defs>
<clipPath id="clip0_3211_5937">
<rect width="16" height="16" fill="white" transform="translate(0 0.977783)"/>
</clipPath>
</defs>
</svg>
