<svg width="24" height="25" viewBox="0 0 24 25" fill="none" xmlns="http://www.w3.org/2000/svg">
<g id="icons / search">
<path id="Union" fill-rule="evenodd" clip-rule="evenodd" d="M3 10.2502C3 6.52229 6.02208 3.50021 9.75 3.50021C13.4779 3.50021 16.5 6.52229 16.5 10.2502C16.5 13.9781 13.4779 17.0002 9.75 17.0002C6.02208 17.0002 3 13.9781 3 10.2502ZM9.75 2.00021C5.19365 2.00021 1.5 5.69386 1.5 10.2502C1.5 14.8066 5.19365 18.5002 9.75 18.5002C11.5682 18.5002 13.249 17.9121 14.6125 16.9156L20.25 22.2502L21.3107 21.1895L15.7425 15.9206C17.1418 14.4423 18 12.4465 18 10.2502C18 5.69386 14.3063 2.00021 9.75 2.00021Z" fill="#2C2E34"/>
</g>
</svg>
