<svg width="16" height="17" viewBox="0 0 16 17" fill="none" xmlns="http://www.w3.org/2000/svg">
<path d="M8.00179 4.87559C5.73162 4.87559 3.9005 6.70712 3.9005 8.97778C3.9005 11.2485 5.73162 13.08 8.00179 13.08C10.2719 13.08 12.1031 11.2485 12.1031 8.97778C12.1031 6.70712 10.2719 4.87559 8.00179 4.87559ZM8.00179 11.6447C6.53475 11.6447 5.33542 10.4487 5.33542 8.97778C5.33542 7.50685 6.53118 6.31082 8.00179 6.31082C9.47239 6.31082 10.6682 7.50685 10.6682 8.97778C10.6682 10.4487 9.46882 11.6447 8.00179 11.6447ZM13.2274 4.70778C13.2274 5.23975 12.7991 5.66461 12.2708 5.66461C11.739 5.66461 11.3142 5.23618 11.3142 4.70778C11.3142 4.17939 11.7426 3.75096 12.2708 3.75096C12.7991 3.75096 13.2274 4.17939 13.2274 4.70778ZM15.9438 5.67889C15.8831 4.39717 15.5904 3.26184 14.6516 2.32644C13.7165 1.39104 12.5814 1.09828 11.2999 1.03401C9.97925 0.959039 6.02075 0.959039 4.70006 1.03401C3.4222 1.09471 2.28712 1.38747 1.34835 2.32287C0.409593 3.25827 0.120468 4.3936 0.0562186 5.67532C-0.0187395 6.9963 -0.0187395 10.9557 0.0562186 12.2767C0.116899 13.5584 0.409593 14.6937 1.34835 15.6291C2.28712 16.5645 3.41863 16.8573 4.70006 16.9216C6.02075 16.9965 9.97925 16.9965 11.2999 16.9216C12.5814 16.8609 13.7165 16.5681 14.6516 15.6291C15.5868 14.6937 15.8795 13.5584 15.9438 12.2767C16.0187 10.9557 16.0187 6.99987 15.9438 5.67889ZM14.2376 13.6941C13.9592 14.3938 13.4202 14.9329 12.717 15.215C11.664 15.6327 9.16542 15.5363 8.00179 15.5363C6.83815 15.5363 4.33597 15.6291 3.28656 15.215C2.58695 14.9365 2.04796 14.3974 1.76598 13.6941C1.34835 12.6408 1.44473 10.1417 1.44473 8.97778C1.44473 7.81389 1.35192 5.31115 1.76598 4.26151C2.04439 3.56174 2.58338 3.02263 3.28656 2.74059C4.33954 2.32287 6.83815 2.41926 8.00179 2.41926C9.16542 2.41926 11.6676 2.32644 12.717 2.74059C13.4166 3.01906 13.9556 3.55817 14.2376 4.26151C14.6552 5.31472 14.5588 7.81389 14.5588 8.97778C14.5588 10.1417 14.6552 12.6444 14.2376 13.6941Z" fill="#0D2640"/>
</svg>
