<svg width="17" height="17" viewBox="0 0 17 17" fill="none" xmlns="http://www.w3.org/2000/svg">
<path d="M15.5857 0.523926H1.8678C1.23923 0.523926 0.728516 1.04178 0.728516 1.6775V15.3704C0.728516 16.0061 1.23923 16.5239 1.8678 16.5239H15.5857C16.2142 16.5239 16.7285 16.0061 16.7285 15.3704V1.6775C16.7285 1.04178 16.2142 0.523926 15.5857 0.523926ZM5.56423 14.2382H3.1928V6.6025H5.5678V14.2382H5.56423ZM4.37852 5.55964C3.6178 5.55964 3.00352 4.94178 3.00352 4.18464C3.00352 3.4275 3.6178 2.80964 4.37852 2.80964C5.13566 2.80964 5.75352 3.4275 5.75352 4.18464C5.75352 4.94535 5.13923 5.55964 4.37852 5.55964ZM14.4535 14.2382H12.0821V10.5239C12.0821 9.63821 12.0642 8.49893 10.8499 8.49893C9.61423 8.49893 9.42494 9.46321 9.42494 10.4596V14.2382H7.05352V6.6025H9.32852V7.64535H9.36066C9.67852 7.04535 10.4535 6.41321 11.6071 6.41321C14.0071 6.41321 14.4535 7.99535 14.4535 10.0525V14.2382Z" fill="white"/>
</svg>
