<svg width="16" height="17" viewBox="0 0 16 17" fill="none" xmlns="http://www.w3.org/2000/svg">
<g clip-path="url(#clip0_3211_6888)">
<path style="fill: none" d="M6.66602 9.64451C6.95232 10.0273 7.31759 10.344 7.73705 10.5731C8.15651 10.8023 8.62035 10.9386 9.09712 10.9727C9.57388 11.0069 10.0524 10.9381 10.5002 10.771C10.9481 10.604 11.3548 10.3426 11.6927 10.0045L13.6927 8.00451C14.2999 7.37583 14.6359 6.53383 14.6283 5.65984C14.6207 4.78585 14.2701 3.94981 13.6521 3.33178C13.0341 2.71375 12.198 2.36319 11.324 2.35559C10.45 2.348 9.60802 2.68398 8.97935 3.29117L7.83268 4.43117" stroke="#0D2640" stroke-linecap="round" stroke-linejoin="round"/>
<path style="fill: none" d="M9.33347 8.3111C9.04716 7.92835 8.68189 7.61165 8.26243 7.38248C7.84297 7.15331 7.37913 7.01703 6.90237 6.98288C6.4256 6.94874 5.94707 7.01753 5.49924 7.18458C5.0514 7.35164 4.64472 7.61306 4.3068 7.9511L2.3068 9.9511C1.69961 10.5798 1.36363 11.4218 1.37122 12.2958C1.37881 13.1698 1.72938 14.0058 2.3474 14.6238C2.96543 15.2419 3.80147 15.5924 4.67546 15.6C5.54945 15.6076 6.39146 15.2716 7.02013 14.6644L8.16013 13.5244" stroke="#0D2640" stroke-linecap="round" stroke-linejoin="round"/>
</g>
<defs>
<clipPath id="clip0_3211_6888">
<rect width="16" height="16" fill="white" transform="translate(0 0.977783)"/>
</clipPath>
</defs>
</svg>
