<svg width="24" height="24" viewBox="0 0 24 24" fill="none" xmlns="http://www.w3.org/2000/svg">
<path fill-rule="evenodd" clip-rule="evenodd" d="M12 5.25C9.92893 5.25 8.25 6.92893 8.25 9C8.25 11.0711 9.92893 12.75 12 12.75C14.0711 12.75 15.75 11.0711 15.75 9C15.75 6.92893 14.0711 5.25 12 5.25ZM10.5 9C10.5 8.17157 11.1716 7.5 12 7.5C12.8284 7.5 13.5 8.17157 13.5 9C13.5 9.82843 12.8284 10.5 12 10.5C11.1716 10.5 10.5 9.82843 10.5 9Z" fill="white"/>
<path fill-rule="evenodd" clip-rule="evenodd" d="M12 24L5.06838 15.3355C3.72945 13.6618 3 11.5823 3 9.43898V9C3 4.02944 7.02944 0 12 0C16.9706 0 21 4.02944 21 9V9.43898C21 11.5823 20.2705 13.6618 18.9316 15.3355L12 24ZM6.82533 13.9299L12 20.3982L17.1747 13.9299C18.1944 12.6552 18.75 11.0714 18.75 9.43898V9C18.75 5.27208 15.7279 2.25 12 2.25C8.27208 2.25 5.25 5.27208 5.25 9V9.43898C5.25 11.0714 5.80557 12.6552 6.82533 13.9299Z" fill="white"/>
</svg>
