<svg width="25" height="25" viewBox="0 0 25 25" fill="none" xmlns="http://www.w3.org/2000/svg">
<path d="M18.7798 11.29V15.29C18.7798 15.55 18.7698 15.8 18.7398 16.04C18.5098 18.74 16.9198 20.08 13.9898 20.08H13.5898C13.3398 20.08 13.0998 20.2 12.9498 20.4L11.7498 22C11.2198 22.71 10.3598 22.71 9.8298 22L8.62979 20.4C8.49979 20.23 8.20981 20.08 7.98981 20.08H7.58981C4.39981 20.08 2.7998 19.29 2.7998 15.29V11.29C2.7998 8.36001 4.14981 6.77001 6.83981 6.54001C7.07981 6.51001 7.32981 6.5 7.58981 6.5H13.9898C17.1798 6.5 18.7798 8.10001 18.7798 11.29Z" stroke="white" stroke-width="1.5" stroke-miterlimit="10" stroke-linecap="round" stroke-linejoin="round"/>
<path d="M22.7798 7.29001V11.29C22.7798 14.23 21.4298 15.81 18.7398 16.04C18.7698 15.8 18.7798 15.55 18.7798 15.29V11.29C18.7798 8.10001 17.1798 6.5 13.9898 6.5H7.58984C7.32984 6.5 7.07984 6.51001 6.83984 6.54001C7.06984 3.85001 8.65984 2.5 11.5898 2.5H17.9898C21.1798 2.5 22.7798 4.10001 22.7798 7.29001Z" stroke="white" stroke-width="1.5" stroke-miterlimit="10" stroke-linecap="round" stroke-linejoin="round"/>
<path d="M14.2953 13.75H14.3043" stroke="white" stroke-width="2" stroke-linecap="round" stroke-linejoin="round"/>
<path d="M10.7953 13.75H10.8043" stroke="white" stroke-width="2" stroke-linecap="round" stroke-linejoin="round"/>
<path d="M7.2953 13.75H7.3043" stroke="white" stroke-width="2" stroke-linecap="round" stroke-linejoin="round"/>
</svg>
