<svg width="18" height="18" viewBox="0 0 18 18" fill="none" xmlns="http://www.w3.org/2000/svg">
<g clip-path="url(#clip0_4028_7444)">
<path d="M16.9125 2.7303L14.4244 0.242297C14.2681 0.0860625 14.0604 0 13.8394 0H3.36388C2.90772 0 2.53658 0.371145 2.53658 0.827297V9.01814H1.95481C1.34323 9.01814 0.845703 9.51571 0.845703 10.1272V15.1999C0.845703 15.8115 1.34323 16.3091 1.95481 16.3091H10.6911C11.1473 16.3091 11.5184 15.9379 11.5184 15.4818V11.5364C11.5184 11.0802 11.1473 10.7091 10.6911 10.7091H1.95481C1.63401 10.7091 1.37305 10.4481 1.37305 10.1273C1.37305 9.80648 1.63401 9.54552 1.95481 9.54552H2.53658V9.84558C2.53658 9.9912 2.65463 10.1093 2.80025 10.1093C2.94587 10.1093 3.06392 9.9912 3.06392 9.84558V0.827297C3.06392 0.661887 3.1985 0.527344 3.36388 0.527344H13.5274V3.08183C13.5274 3.38263 13.7721 3.62735 14.0729 3.62735H16.6274V17.1727C16.6274 17.3381 16.4928 17.4727 16.3275 17.4727H3.36388C3.19847 17.4727 3.06392 17.3381 3.06392 17.1727C3.06392 17.0271 2.94587 16.909 2.80025 16.909C2.65463 16.909 2.53658 17.0271 2.53658 17.1727C2.53658 17.6289 2.90772 18 3.36388 18H16.3275C16.7836 18 17.1548 17.6289 17.1548 17.1727V3.3153C17.1548 3.09435 17.0687 2.88657 16.9125 2.7303ZM1.95481 11.2364H10.6911C10.8566 11.2364 10.9911 11.371 10.9911 11.5364V15.4818C10.9911 15.6472 10.8565 15.7818 10.6911 15.7818H1.95481C1.63401 15.7818 1.37305 15.5208 1.37305 15.2V11.0712C1.54225 11.176 1.74159 11.2364 1.95481 11.2364ZM14.0548 3.08183V0.618504L16.5364 3.10001H14.0729C14.0629 3.10001 14.0548 3.09185 14.0548 3.08183Z" fill="#5D5E5E"/>
<path d="M8.31738 14.8917C8.463 14.8917 8.58105 14.7737 8.58105 14.6281V13.7515H9.15238C9.298 13.7515 9.41605 13.6335 9.41605 13.4878C9.41605 13.3422 9.298 13.2242 9.15238 13.2242H8.58105V12.6537H9.22445C9.37007 12.6537 9.48812 12.5356 9.48812 12.39C9.48812 12.2444 9.37007 12.1263 9.22445 12.1263H8.31738C8.17177 12.1263 8.05371 12.2444 8.05371 12.39V14.628C8.05371 14.7736 8.17177 14.8917 8.31738 14.8917Z" fill="#5D5E5E"/>
<path d="M5.5462 14.7901C5.5956 14.8392 5.6624 14.8667 5.73197 14.8667H5.73295C5.75169 14.8666 6.19343 14.8649 6.36988 14.8618C7.02143 14.8504 7.49435 14.2815 7.49435 13.5091C7.49435 12.6971 7.03335 12.1515 6.34717 12.1515H5.72754C5.65751 12.1515 5.5904 12.1793 5.54093 12.2289C5.49147 12.2785 5.46373 12.3457 5.46387 12.4157V12.4174V12.4174V14.5675C5.46387 14.5856 5.4657 14.6033 5.46918 14.6203C5.4734 14.6843 5.50047 14.7448 5.5462 14.7901ZM6.34717 12.6788C6.8042 12.6788 6.96701 13.1077 6.96701 13.5091C6.96701 14.072 6.66249 14.3293 6.36067 14.3346C6.27679 14.336 6.12713 14.3372 5.99473 14.338C5.99388 14.0793 5.99213 12.9479 5.99167 12.6788H6.34717Z" fill="#5D5E5E"/>
<path d="M3.35547 14.9C3.50109 14.9 3.61914 14.7819 3.61914 14.6363V13.9192C3.75006 13.9185 3.89891 13.9179 3.98322 13.9179C4.4863 13.9179 4.89559 13.5142 4.89559 13.018C4.89559 12.5217 4.4863 12.118 3.98322 12.118H3.35547C3.2854 12.118 3.21822 12.146 3.16872 12.1956C3.11943 12.245 3.09183 12.312 3.09183 12.3817L3.0918 14.6363C3.0918 14.7819 3.20985 14.9 3.35547 14.9ZM3.98322 12.6454C4.19194 12.6454 4.36825 12.8161 4.36825 13.018C4.36825 13.2199 4.19194 13.3906 3.98322 13.3906C3.89948 13.3906 3.75249 13.3912 3.62206 13.3919C3.62136 13.2572 3.6203 12.7864 3.61991 12.6455H3.98322V12.6454Z" fill="#5D5E5E"/>
<path d="M8.2954 7.64513C7.64736 7.84967 6.98224 8.13278 6.62745 8.49901C6.3347 8.80117 6.28165 9.15175 6.48186 9.46088C6.61774 9.67066 6.80453 9.78031 7.01455 9.78031C7.09516 9.78031 7.17922 9.76414 7.26511 9.7313C7.57494 9.61283 7.90956 9.27578 8.28809 8.70087C8.41029 8.51528 8.534 8.30902 8.65716 8.08589C8.70198 8.0727 8.74768 8.05959 8.79444 8.04651C9.53856 7.83832 10.3804 7.68721 11.1193 7.62407C11.5696 8.05959 12.0352 8.39892 12.4321 8.49148C12.8687 8.59333 13.2148 8.39368 13.3578 7.95739C13.4444 7.69312 13.3447 7.44393 13.091 7.29083C12.8302 7.13336 12.377 7.05732 11.7443 7.06456C11.6096 7.06611 11.4673 7.07159 11.3193 7.08077C11.0351 6.78764 10.7394 6.4373 10.4546 6.05041C10.2339 5.7507 10.0367 5.45078 9.86991 5.1657C9.88805 5.10323 9.90527 5.0416 9.92162 4.98106C10.1019 4.31264 10.1662 3.80087 10.1127 3.45992C10.0355 2.96756 9.71768 2.89763 9.58465 2.89046C9.13166 2.86596 8.82654 3.09451 8.7685 3.50179C8.72237 3.82533 8.83118 4.27048 9.09186 4.82483C9.15384 4.95659 9.22335 5.0924 9.29967 5.23109C9.27123 5.32236 9.2404 5.41732 9.207 5.51614C8.96393 6.23523 8.63473 7.00146 8.2954 7.64513ZM7.02918 9.25156C7.01037 9.25392 6.97866 9.25789 6.92445 9.17418C6.88032 9.10605 6.87793 9.05465 6.91559 8.98448C7.00362 8.82037 7.30417 8.5901 7.88576 8.35223C7.47984 8.98181 7.17648 9.23317 7.02918 9.25156ZM12.861 7.77524C12.8606 7.77851 12.8596 7.78435 12.8567 7.79321C12.7908 7.99416 12.7023 8.01311 12.5518 7.97799C12.3681 7.93514 12.1347 7.7994 11.8744 7.59166C12.5793 7.59728 12.8251 7.72427 12.861 7.77524ZM9.29053 3.57625C9.30129 3.50088 9.31335 3.41612 9.51395 3.41612C9.52657 3.41612 9.53997 3.41647 9.5541 3.41714C9.61415 3.4903 9.64505 3.81581 9.50611 4.46001C9.34246 4.08472 9.26251 3.77295 9.29053 3.57625ZM9.6577 5.82639C9.77344 6.00425 9.89793 6.18386 10.0299 6.36309C10.2191 6.62022 10.433 6.88716 10.6591 7.14198C10.3975 7.17355 10.1276 7.21429 9.85767 7.2633C9.675 7.29645 9.35652 7.35899 8.98372 7.45198C9.06641 7.28053 9.14794 7.10281 9.22771 6.92007C9.38626 6.55694 9.53209 6.18537 9.6577 5.82639Z" fill="#5D5E5E"/>
</g>
<defs>
<clipPath id="clip0_4028_7444">
<rect width="18" height="18" fill="white"/>
</clipPath>
</defs>
</svg>
