<svg width="24" height="24" viewBox="0 0 24 24" fill="none" xmlns="http://www.w3.org/2000/svg">
<path d="M18.0001 7.16C17.9401 7.15 17.8701 7.15 17.8101 7.16C16.4301 7.11 15.3301 5.98 15.3301 4.58C15.3301 3.15 16.4801 2 17.9101 2C19.3401 2 20.4901 3.16 20.4901 4.58C20.4801 5.98 19.3801 7.11 18.0001 7.16Z" stroke="white" stroke-width="1.5" stroke-linecap="round" stroke-linejoin="round"/>
<path d="M16.9699 14.44C18.3399 14.67 19.8499 14.43 20.9099 13.72C22.3199 12.78 22.3199 11.24 20.9099 10.3C19.8399 9.59004 18.3099 9.35003 16.9399 9.59003" stroke="white" stroke-width="1.5" stroke-linecap="round" stroke-linejoin="round"/>
<path d="M5.96998 7.16C6.02998 7.15 6.09998 7.15 6.15998 7.16C7.53998 7.11 8.63998 5.98 8.63998 4.58C8.63998 3.15 7.48998 2 6.05998 2C4.62998 2 3.47998 3.16 3.47998 4.58C3.48998 5.98 4.58998 7.11 5.96998 7.16Z" stroke="white" stroke-width="1.5" stroke-linecap="round" stroke-linejoin="round"/>
<path d="M6.99994 14.44C5.62994 14.67 4.11994 14.43 3.05994 13.72C1.64994 12.78 1.64994 11.24 3.05994 10.3C4.12994 9.59004 5.65994 9.35003 7.02994 9.59003" stroke="white" stroke-width="1.5" stroke-linecap="round" stroke-linejoin="round"/>
<path d="M11.9996 14.6297C11.9396 14.6197 11.8696 14.6197 11.8096 14.6297C10.4296 14.5797 9.32959 13.4497 9.32959 12.0497C9.32959 10.6197 10.4796 9.46973 11.9096 9.46973C13.3396 9.46973 14.4896 10.6297 14.4896 12.0497C14.4796 13.4497 13.3796 14.5897 11.9996 14.6297Z" stroke="white" stroke-width="1.5" stroke-linecap="round" stroke-linejoin="round"/>
<path d="M9.08973 17.7794C7.67973 18.7194 7.67973 20.2594 9.08973 21.1994C10.6897 22.2694 13.3097 22.2694 14.9097 21.1994C16.3197 20.2594 16.3197 18.7194 14.9097 17.7794C13.3197 16.7194 10.6897 16.7194 9.08973 17.7794Z" stroke="white" stroke-width="1.5" stroke-linecap="round" stroke-linejoin="round"/>
</svg>
