<svg width="24" height="24" viewBox="0 0 24 24" fill="none" xmlns="http://www.w3.org/2000/svg">
<g id="whatsapp">
<g id="vuesax/broken/whatsapp">
<g id="whatsapp_2">
<path id="Vector" d="M14 20.6152C14 20.8485 13.948 21.0947 13.831 21.328C13.714 21.5613 13.571 21.7817 13.389 21.989C13.064 22.339 12.713 22.5982 12.323 22.7537C11.933 22.9222 11.504 23 11.049 23C10.386 23 9.67097 22.8445 8.92997 22.5204C8.17597 22.1964 7.43501 21.7687 6.69401 21.2373C5.94001 20.6929 5.23799 20.0837 4.56199 19.4227C3.88599 18.7487 3.28803 18.0359 2.74203 17.2971C2.20903 16.5583 1.77998 15.8195 1.46798 15.0807C1.15598 14.342 1 13.6291 1 12.9551C1 12.5145 1.07799 12.0867 1.23399 11.6979C1.38999 11.2961 1.63701 10.9332 1.98801 10.6092C2.40401 10.1944 2.85898 10 3.33998 10C3.52198 10 3.70403 10.0389 3.87303 10.1166C4.04203 10.1944 4.19798 10.3111 4.31498 10.4796L5.82303 12.6052C5.94003 12.7737 6.03096 12.9162 6.08296 13.0588C6.14796 13.2014 6.17397 13.331 6.17397 13.4606C6.17397 13.6161 6.12199 13.7717 6.03099 13.9272C5.93999 14.0828 5.82303 14.2383 5.66703 14.3938L5.17303 14.9122C5.09503 14.99 5.06901 15.0678 5.06901 15.1715C5.06901 15.2233 5.08203 15.2752 5.09503 15.327C5.12103 15.3788 5.134 15.4177 5.147 15.4566C5.264 15.677 5.47196 15.9491 5.75796 16.2861C6.05696 16.6231 6.36902 16.9731 6.70702 17.3101C7.05802 17.66 7.396 17.9711 7.747 18.2692C8.085 18.5543 8.37103 18.7488 8.59203 18.8654C8.63103 18.8784 8.66999 18.9043 8.70899 18.9172C8.76099 18.9431 8.813 18.9432 8.878 18.9432C8.995 18.9432 9.07303 18.9043 9.15103 18.8265L9.64503 18.334C9.81403 18.1655 9.97001 18.0488 10.113 17.9711C10.269 17.8804 10.412 17.8285 10.581 17.8285C10.711 17.8285 10.841 17.8544 10.984 17.9192C11.127 17.984 11.283 18.0618 11.439 18.1785L13.597 19.7079C13.766 19.8245 13.883 19.9671 13.961 20.1226C13.961 20.2782 14 20.4337 14 20.6152Z" stroke="white" stroke-width="1.5" stroke-miterlimit="10"/>
</g>
</g>
<path id="Vector_2" d="M8 8C8 4.13401 11.134 1 15 1M15 1C18.866 1 22 4.13401 22 8C22 11.866 18.866 15 15 15V1Z" stroke="white" stroke-width="1.5" stroke-miterlimit="10" stroke-linecap="round" stroke-linejoin="round"/>
<ellipse id="Ellipse 8" cx="15" cy="8" rx="3" ry="7" stroke="white" stroke-width="1.5" stroke-miterlimit="10"/>
<path id="Vector 51" d="M11 8L22 8" stroke="white" stroke-width="1.5" stroke-miterlimit="10" stroke-linecap="round"/>
</g>
</svg>
