<svg width="24" height="24" viewBox="0 0 24 24" fill="none" xmlns="http://www.w3.org/2000/svg">
<path d="M24 -3.8147e-06L24 10.5679C24 12.0165 23.8354 13.4321 23.5062 14.8148C23.1111 16.2634 22.5514 17.5802 21.8271 18.7654C21.1029 20.0165 20.1811 21.1029 19.0617 22.0247C17.9424 22.9465 16.6584 23.6049 15.2099 24L15.2099 19.7531C16.0659 19.4239 16.7901 18.8971 17.3827 18.1728C17.9753 17.5144 18.4691 16.7243 18.8642 15.8025C19.2593 14.9465 19.5556 14.0247 19.7531 13.037C19.8848 12.1152 19.9177 11.2593 19.8518 10.4691L15.7037 10.4691L15.7037 -3.08941e-06L24 -3.8147e-06ZM8.79011 -2.48501e-06L8.79012 10.5679C8.79012 12.0165 8.62551 13.4321 8.2963 14.8148C7.90123 16.2634 7.34154 17.5802 6.61727 18.7654C5.89298 20.0165 4.97119 21.1029 3.85184 22.0247C2.7325 22.9465 1.44856 23.6049 0 24L-3.71277e-07 19.7531C0.855968 19.4239 1.58026 18.8971 2.17285 18.1728C2.76544 17.5144 3.25925 16.7243 3.65431 15.8025C4.04937 14.9465 4.34567 14.0247 4.5432 13.037C4.67489 12.1152 4.70783 11.2593 4.64199 10.4691L0.493819 10.4691L0.493818 -1.75972e-06L8.79011 -2.48501e-06Z" fill="#C5B483"/>
</svg>
