<svg width="24" height="24" viewBox="0 0 24 24" fill="none" xmlns="http://www.w3.org/2000/svg">
<path d="M2.09815e-06 -3.8147e-06L1.17427e-06 10.5679C1.04763e-06 12.0165 0.164602 13.4321 0.49382 14.8148C0.888882 16.2634 1.44857 17.5802 2.17285 18.7654C2.89713 20.0165 3.81893 21.1029 4.93827 22.0247C6.05761 22.9465 7.34156 23.6049 8.79012 24L8.79012 19.7531C7.93415 19.4239 7.2099 18.8971 6.6173 18.1728C6.02471 17.5144 5.53087 16.7243 5.13581 15.8025C4.74075 14.9465 4.44445 14.0247 4.24692 13.037C4.11523 12.1152 4.08232 11.2593 4.14817 10.4691L8.2963 10.4691L8.2963 -3.08941e-06L2.09815e-06 -3.8147e-06ZM15.2099 -2.48501e-06L15.2099 10.5679C15.2099 12.0165 15.3745 13.4321 15.7037 14.8148C16.0988 16.2634 16.6585 17.5802 17.3827 18.7654C18.107 20.0165 19.0288 21.1029 20.1482 22.0247C21.2675 22.9465 22.5514 23.6049 24 24L24 19.7531C23.144 19.4239 22.4197 18.8971 21.8271 18.1728C21.2346 17.5144 20.7408 16.7243 20.3457 15.8025C19.9506 14.9465 19.6543 14.0247 19.4568 13.037C19.3251 12.1152 19.2922 11.2593 19.358 10.4691L23.5062 10.4691L23.5062 -1.75972e-06L15.2099 -2.48501e-06Z" fill="#C5B483"/>
</svg>
