<svg width="25" height="24" viewBox="0 0 25 24" fill="none" xmlns="http://www.w3.org/2000/svg">
<path d="M3.20996 11.2197V15.7097C3.20996 20.1997 5.00996 21.9997 9.49996 21.9997H14.89C19.38 21.9997 21.18 20.1997 21.18 15.7097V11.2197" stroke="white" stroke-width="1.5" stroke-linecap="round" stroke-linejoin="round"/>
<path d="M12.1997 12C14.0297 12 15.3797 10.51 15.1997 8.68L14.5397 2H9.8697L9.1997 8.68C9.0197 10.51 10.3697 12 12.1997 12Z" stroke="white" stroke-width="1.5" stroke-linecap="round" stroke-linejoin="round"/>
<path d="M18.5095 12C20.5295 12 22.0095 10.36 21.8095 8.35L21.5295 5.6C21.1695 3 20.1695 2 17.5495 2H14.4995L15.1995 9.01C15.3695 10.66 16.8595 12 18.5095 12Z" stroke="white" stroke-width="1.5" stroke-linecap="round" stroke-linejoin="round"/>
<path d="M5.83959 12C7.48959 12 8.97959 10.66 9.13959 9.01L9.35959 6.8L9.83959 2H6.78959C4.16959 2 3.16959 3 2.80959 5.6L2.53959 8.35C2.33959 10.36 3.81959 12 5.83959 12Z" stroke="white" stroke-width="1.5" stroke-linecap="round" stroke-linejoin="round"/>
<path d="M12.1997 17C10.5297 17 9.69971 17.83 9.69971 19.5V22H14.6997V19.5C14.6997 17.83 13.8697 17 12.1997 17Z" stroke="white" stroke-width="1.5" stroke-linecap="round" stroke-linejoin="round"/>
</svg>
