<svg width="17" height="17" viewBox="0 0 17 17" fill="none" xmlns="http://www.w3.org/2000/svg">
<g id="Social_media/TwitterX" clip-path="url(#clip0_2126_422)">
<path id="Vector" d="M9.26333 8.25098L12.8639 13.4011H11.3862L8.44808 9.19859V9.19833L8.01671 8.58141L4.58447 3.67188H6.06216L8.83197 7.63406L9.26333 8.25098Z" fill="white"/>
<path id="Vector_2" d="M14.9997 0.523926H2.45735C1.50257 0.523926 0.728516 1.29798 0.728516 2.25276V14.7951C0.728516 15.7499 1.50257 16.5239 2.45735 16.5239H14.9997C15.9545 16.5239 16.7285 15.7499 16.7285 14.7951V2.25276C16.7285 1.29798 15.9545 0.523926 14.9997 0.523926ZM10.9338 14.0922L7.96059 9.76507L4.23808 14.0922H3.276L7.53341 9.14358L3.276 2.9474H6.5232L9.33865 7.04494L12.8636 2.9474H13.8257L9.76597 7.66655H9.76571L14.181 14.0922H10.9338Z" fill="white"/>
</g>
<defs>
<clipPath id="clip0_2126_422">
<rect width="16" height="16" fill="white" transform="translate(0.728516 0.523926)"/>
</clipPath>
</defs>
</svg>
