<svg width="25" height="24" viewBox="0 0 25 24" fill="none" xmlns="http://www.w3.org/2000/svg">
<path d="M22.3999 15V9C22.3999 4 20.3999 2 15.3999 2H9.3999C4.3999 2 2.3999 4 2.3999 9V15C2.3999 20 4.3999 22 9.3999 22H15.3999C20.3999 22 22.3999 20 22.3999 15Z" stroke="white" stroke-width="1.5" stroke-linecap="round" stroke-linejoin="round"/>
<path d="M2.91992 7.10938H21.8799" stroke="white" stroke-width="1.5" stroke-linecap="round" stroke-linejoin="round"/>
<path d="M8.91992 2.10938V6.96937" stroke="white" stroke-width="1.5" stroke-linecap="round" stroke-linejoin="round"/>
<path d="M15.8799 2.10938V6.51937" stroke="white" stroke-width="1.5" stroke-linecap="round" stroke-linejoin="round"/>
<path d="M10.1499 14.45V13.25C10.1499 11.71 11.2399 11.08 12.5699 11.85L13.6099 12.45L14.6499 13.05C15.9799 13.82 15.9799 15.08 14.6499 15.85L13.6099 16.45L12.5699 17.05C11.2399 17.82 10.1499 17.19 10.1499 15.65V14.45V14.45Z" stroke="white" stroke-width="1.5" stroke-miterlimit="10" stroke-linecap="round" stroke-linejoin="round"/>
</svg>
