<svg width="230" height="42" viewBox="0 0 230 42" fill="none" xmlns="http://www.w3.org/2000/svg">
<path d="M54.2605 22.5512L56.9505 15.2912H57.0405L59.7305 22.5512H54.2605ZM53.9805 12.7612V12.8612C53.9805 12.8612 54.8405 13.4912 54.2305 15.1512L48.7705 29.0212H51.8705L53.4205 24.8512H60.5905L62.1405 29.0212H65.2605L58.8605 12.7612H53.9805Z" fill="white"/>
<path d="M84.0804 16.041C83.8904 15.411 83.5504 14.851 83.0704 14.361C82.5904 13.881 81.9204 13.491 81.0804 13.201C80.2404 12.911 79.1604 12.771 77.8604 12.771H71.9004H70.8804V12.871C70.8804 12.871 71.9004 13.571 71.9004 15.441V29.021H74.7704V15.181H77.8104C78.5304 15.181 79.1304 15.241 79.6104 15.371C80.0804 15.501 80.4604 15.681 80.7404 15.921C81.0204 16.161 81.2204 16.461 81.3304 16.821C81.4404 17.181 81.5004 17.601 81.5004 18.091C81.5004 18.561 81.4504 18.971 81.3404 19.341C81.2404 19.711 81.0504 20.031 80.7704 20.291C80.5004 20.561 80.1204 20.761 79.6504 20.901C79.1804 21.041 78.5704 21.121 77.8304 21.121H76.7504L75.7304 23.551H77.9004C79.1704 23.551 80.2204 23.401 81.0604 23.101C81.9004 22.801 82.5604 22.401 83.0504 21.891C83.5404 21.381 83.8804 20.791 84.0804 20.121C84.2704 19.451 84.3704 18.741 84.3704 18.001C84.3704 17.341 84.2704 16.671 84.0804 16.041Z" fill="white"/>
<path d="M87.6006 12.7712H86.5806V12.8712C86.5806 12.8712 87.6006 13.5712 87.6006 15.4412V29.0212H90.5206V12.7612L87.6006 12.7712Z" fill="white"/>
<path d="M104.931 15.281L105.951 12.771H94.9507H93.9307V12.871C93.9307 12.871 94.9507 13.571 94.9507 15.441V29.021H97.8707V22.681H103.591L104.611 20.171H97.8807V15.271H104.931V15.281Z" fill="white"/>
<path d="M128.751 23.6411C128.541 24.6311 128.111 25.5611 127.481 26.4311C126.841 27.3011 125.991 28.0111 124.921 28.5611C123.851 29.1111 122.601 29.3811 121.181 29.3811C119.571 29.3811 118.131 29.0311 116.851 28.3411C115.581 27.6511 114.571 26.6611 113.851 25.3811C113.121 24.1011 112.761 22.5911 112.761 20.8611C112.761 19.1511 113.121 17.6511 113.851 16.3811C114.581 15.1011 115.581 14.1211 116.851 13.4311C118.131 12.7411 119.571 12.3911 121.181 12.3911C122.581 12.3911 123.811 12.6511 124.881 13.1811C125.951 13.7011 126.801 14.3711 127.441 15.1711C128.081 15.9711 128.491 16.8011 128.671 17.6311L125.851 18.1111C125.611 17.1511 125.081 16.3611 124.271 15.7211C123.461 15.0811 122.431 14.7611 121.181 14.7611C120.131 14.7611 119.191 15.0011 118.361 15.4811C117.531 15.9611 116.871 16.6611 116.391 17.5911C115.911 18.5111 115.671 19.6111 115.671 20.8711C115.671 22.1511 115.911 23.2511 116.391 24.1711C116.871 25.1011 117.521 25.8011 118.361 26.2911C119.201 26.7711 120.141 27.0211 121.181 27.0211C122.491 27.0211 123.531 26.6711 124.321 25.9611C125.111 25.2511 125.631 24.3511 125.891 23.2611L128.751 23.6411Z" fill="white"/>
<path d="M222.411 20.2312L226.791 12.7612H229.971L223.831 22.6912V29.0212H220.961V22.7112L214.811 12.7612H218.041L222.411 20.2312Z" fill="white"/>
<path d="M141.671 26.2909C142.511 25.8009 143.171 25.1009 143.651 24.1809C144.131 23.2609 144.371 22.1609 144.371 20.8909C144.371 19.6209 144.131 18.5209 143.651 17.6009C143.171 16.6809 142.511 15.9809 141.671 15.4909C140.831 15.0009 139.881 14.7609 138.811 14.7609C137.731 14.7609 136.771 15.0009 135.931 15.4909C135.091 15.9709 134.431 16.6809 133.951 17.6009C133.471 18.5209 133.231 19.6109 133.231 20.8909C133.231 22.1709 133.471 23.2609 133.951 24.1809C134.431 25.1009 135.091 25.8009 135.931 26.2909C136.771 26.7809 137.731 27.0209 138.811 27.0209C139.881 27.0109 140.831 26.7709 141.671 26.2909ZM143.191 13.4209C144.481 14.1009 145.491 15.0909 146.221 16.3709C146.951 17.6509 147.311 19.1609 147.311 20.8909C147.311 22.6209 146.951 24.1309 146.221 25.4109C145.491 26.6909 144.481 27.6709 143.191 28.3609C141.901 29.0409 140.441 29.3909 138.821 29.3909C137.201 29.3909 135.741 29.0509 134.451 28.3609C133.161 27.6809 132.151 26.6909 131.421 25.4109C130.691 24.1309 130.331 22.6209 130.331 20.8909C130.331 19.1609 130.691 17.6509 131.421 16.3709C132.151 15.0909 133.161 14.1109 134.451 13.4209C135.741 12.7409 137.201 12.4009 138.821 12.4009C140.441 12.4009 141.901 12.7409 143.191 13.4209Z" fill="white"/>
<path d="M186.93 22.5512L189.62 15.2912H189.71L192.4 22.5512H186.93ZM186.65 12.7612V12.8612C186.65 12.8612 187.51 13.4912 186.9 15.1512L181.44 29.0212H184.54L186.09 24.8512H193.26L194.81 29.0212H197.93L191.53 12.7612H186.65Z" fill="white"/>
<path d="M149.74 29.0212H152.4V16.6112H152.49L156.79 29.0212H159.02L163.32 16.6112H163.41V29.0212H166.14V12.7612H161.97L157.98 24.7812H157.89L153.91 12.7612H149.72H148.71V12.8612C148.71 12.8612 149.72 13.5612 149.72 15.4212V29.0212H149.74Z" fill="white"/>
<path d="M199.15 29.0212H201.81V16.7212H201.9L210.19 29.0212H213.31V12.7612H210.65V24.8512H210.56L202.39 12.7612H199.16H198.15V12.8612C198.15 12.8612 199.16 13.5612 199.16 15.4212V29.0212H199.15Z" fill="white"/>
<path d="M169.751 29.021H172.621V15.171H175.661C176.381 15.171 176.981 15.231 177.461 15.361C177.931 15.491 178.311 15.671 178.591 15.921C178.871 16.161 179.071 16.461 179.181 16.821C179.291 17.181 179.351 17.601 179.351 18.091C179.351 18.561 179.301 18.981 179.191 19.341C179.081 19.711 178.901 20.031 178.621 20.291C178.351 20.561 177.971 20.761 177.501 20.901C177.031 21.051 176.421 21.121 175.681 21.121H174.571L173.581 23.561H175.751C177.021 23.561 178.071 23.411 178.911 23.111C179.751 22.811 180.411 22.411 180.901 21.901C181.391 21.391 181.731 20.801 181.931 20.131C182.121 19.451 182.221 18.751 182.221 18.011C182.221 17.321 182.121 16.661 181.931 16.021C181.741 15.381 181.401 14.831 180.921 14.341C180.441 13.861 179.811 13.471 178.971 13.181C178.131 12.891 177.021 12.751 175.711 12.751H169.751H168.741V12.851C168.741 12.851 169.751 13.551 169.751 15.411V29.021Z" fill="white"/>
<path d="M36.5601 18.1214L36.6501 18.6314L38.8601 18.2114L38.7701 17.7114L36.5601 18.1214Z" fill="white"/>
<path d="M36.5103 23.9214L38.7403 24.3014L38.8303 23.7914L36.6103 23.4214L36.5103 23.9214Z" fill="white"/>
<path d="M38.2502 22.6412C38.4902 22.6712 38.6602 22.5712 38.6802 22.3712C38.7002 22.1912 38.5902 22.0512 38.3302 22.0312C38.0902 22.0012 37.9402 22.1112 37.9202 22.2912L37.8902 22.6012L38.2502 22.6412ZM36.6802 22.9912L36.7302 22.4812L37.5402 22.5712L37.5902 22.1312C37.6302 21.7612 37.8902 21.4712 38.3502 21.5212C38.7802 21.5712 39.0702 21.8712 39.0102 22.4212C38.9502 23.0212 38.5502 23.1912 38.0902 23.1412L36.6802 22.9912Z" fill="white"/>
<path d="M38.2302 19.3813L38.2502 19.7513L39.0302 19.7113L39.0602 20.2213L38.2802 20.2613L38.3002 20.6213L39.0502 20.5813L39.0802 21.0913L37.9902 21.1513L37.8902 19.4013L36.7302 19.4613L36.7002 18.9513L38.9502 18.8213L38.9802 19.3313L38.2302 19.3813Z" fill="white"/>
<path d="M5.17027 18.8911L3.03027 18.5711L3.11027 18.0711L4.50027 18.2811L4.56027 17.8911L4.93027 17.9511L4.92027 18.0111C4.90027 18.1311 4.92027 18.2211 4.99027 18.3111C5.05027 18.3911 5.14027 18.4511 5.24027 18.4911L5.17027 18.8911Z" fill="white"/>
<path d="M4.12031 19.7414C4.06031 19.7914 4.02031 19.8614 4.02031 19.9414C4.02031 20.0214 4.04031 20.0914 4.10031 20.1614C4.16031 20.2214 4.25031 20.2614 4.36031 20.2614C4.47031 20.2714 4.56031 20.2414 4.63031 20.1914C4.70031 20.1314 4.73031 20.0714 4.74031 19.9814C4.74031 19.9014 4.72031 19.8314 4.66031 19.7714C4.60031 19.7114 4.51031 19.6814 4.40031 19.6714C4.27031 19.6714 4.18031 19.6914 4.12031 19.7414ZM3.75031 19.4914C3.81031 19.3914 3.90031 19.3114 4.01031 19.2614C4.12031 19.2014 4.25031 19.1814 4.39031 19.1814C4.57031 19.1914 4.71031 19.2314 4.82031 19.3214C4.93031 19.4014 5.01031 19.5014 5.06031 19.6214C5.11031 19.7414 5.13031 19.8614 5.12031 19.9914C5.10031 20.2814 4.99031 20.4814 4.79031 20.6014C4.59031 20.7214 4.31031 20.7614 3.94031 20.7514C3.53031 20.7314 3.24031 20.6414 3.08031 20.4814C2.92031 20.3214 2.85031 20.1214 2.86031 19.8714C2.87031 19.6814 2.93031 19.5314 3.04031 19.4014C3.15031 19.2814 3.29031 19.2014 3.47031 19.1714L3.51031 19.6514C3.34031 19.6814 3.26031 19.7614 3.25031 19.8914C3.24031 20.0114 3.29031 20.1014 3.39031 20.1514C3.49031 20.2014 3.63031 20.2414 3.79031 20.2514V20.2414C3.74031 20.1814 3.70031 20.1214 3.67031 20.0414C3.65031 19.9714 3.63031 19.8914 3.64031 19.8014C3.65031 19.7014 3.69031 19.5914 3.75031 19.4914Z" fill="white"/>
<path d="M5.03012 20.9814L5.11012 22.5614L4.65012 22.5814L2.90012 21.7914L2.87012 21.2014L4.61012 22.0214L4.56012 21.0114L5.03012 20.9814Z" fill="white"/>
<path d="M5.29031 23.6813L3.15031 24.0013L3.07031 23.5013L4.46031 23.2913L4.40031 22.9013L4.77031 22.8413L4.78031 22.9013C4.80031 23.0213 4.85031 23.1013 4.93031 23.1613C5.02031 23.2213 5.11031 23.2513 5.22031 23.2613L5.29031 23.6813Z" fill="white"/>
<path d="M35.82 11.0011C35.94 10.9211 35.97 10.7611 35.88 10.6411C35.8 10.5211 35.63 10.4911 35.52 10.5811C35.4 10.6611 35.37 10.8311 35.46 10.9411C35.54 11.0611 35.7 11.0911 35.82 11.0011Z" fill="white"/>
<path d="M35.9901 14.1413L35.7601 14.2613C35.5701 13.8313 35.3601 13.4113 35.1301 13.0013L35.6301 12.6913L36.0901 13.6513C36.2101 13.8613 36.1601 14.0613 35.9901 14.1413ZM36.4501 13.5213L36.0101 12.6013L35.7401 12.6313L36.0601 12.4313L35.7701 11.9713L34.8501 12.5213C34.7401 12.3313 34.6201 12.1413 34.5001 11.9613L35.3901 11.3313L35.0701 10.8813L34.1901 11.5013C34.0701 11.3313 33.9401 11.1513 33.8101 10.9913L34.0801 10.7713C34.4901 10.4313 34.5201 10.0613 34.1401 9.60127L33.9001 9.30127L33.6201 9.55127L33.7701 9.73127C33.9801 9.98127 33.9701 10.1413 33.7801 10.3013L33.4601 10.5713C33.2701 10.3413 33.0801 10.1113 32.8701 9.89127L32.6001 10.1413C33.0601 10.6413 33.4901 11.1713 33.8801 11.7313C33.9901 11.8813 34.1201 11.9713 34.2701 11.9813L34.2001 12.2013C34.7601 13.0613 35.2501 13.9813 35.6401 14.9413L36.1601 14.6813C36.6901 14.4113 36.6501 13.9213 36.4501 13.5213Z" fill="white"/>
<path d="M31.8001 6.871C31.7001 6.791 31.6801 6.651 31.7501 6.551C31.8301 6.451 31.9701 6.421 32.0801 6.501C32.1801 6.581 32.2001 6.721 32.1301 6.831C32.0501 6.931 31.9001 6.951 31.8001 6.871ZM31.3201 6.511C31.2201 6.431 31.2001 6.29099 31.2701 6.19099C31.3501 6.09099 31.5001 6.061 31.6001 6.141C31.7001 6.221 31.7301 6.361 31.6501 6.471C31.5701 6.571 31.4301 6.591 31.3201 6.511ZM31.1001 7.231C30.9401 7.111 30.7101 7.121 30.5601 7.321C30.4201 7.511 30.4501 7.73099 30.6301 7.86099L30.8301 8.011C30.8401 8.001 30.8501 7.981 30.8601 7.971L31.3101 7.381L31.1001 7.231ZM31.9701 7.421L31.2701 8.35099C30.8201 8.94099 30.1601 8.811 29.6401 8.411C29.1301 8.031 28.8001 7.411 29.2301 6.841L29.4001 6.61099L29.8401 6.94099L29.6301 7.221C29.3901 7.541 29.5901 7.911 29.8701 8.121C30.0801 8.271 30.3301 8.341 30.5501 8.241L30.3001 8.051C29.9401 7.781 29.8401 7.341 30.1101 6.991C30.4301 6.561 30.9501 6.641 31.3201 6.921L31.9701 7.421Z" fill="white"/>
<path d="M32.3503 9.33112L32.8903 8.77111L32.7003 8.59112C32.5503 8.45112 32.3303 8.43112 32.1603 8.61112C32.0003 8.78112 32.0103 9.00112 32.1603 9.15112L32.3503 9.33112ZM33.5403 8.89112L32.6403 9.83112C32.1403 10.3511 31.7203 10.2411 31.2803 9.82112L31.0703 9.61112L31.3103 9.36112L31.4603 9.51112C31.6803 9.73112 31.8703 9.77112 32.0903 9.59112L31.8203 9.33112C31.5003 9.02112 31.4503 8.57112 31.7603 8.25112C32.1303 7.86112 32.6303 8.01112 32.9703 8.33112L33.5403 8.89112Z" fill="white"/>
<path d="M13.3601 5.50104C13.4801 5.44104 13.5201 5.30104 13.4601 5.19104C13.4001 5.07104 13.2601 5.03104 13.1501 5.09104C13.0401 5.15104 12.9901 5.29104 13.0501 5.40104C13.1001 5.52104 13.2401 5.56104 13.3601 5.50104Z" fill="white"/>
<path d="M12.83 5.77106C12.95 5.71106 12.99 5.57106 12.93 5.46106C12.87 5.34106 12.73 5.30106 12.61 5.36106C12.5 5.42106 12.45 5.56106 12.51 5.67106C12.57 5.79106 12.71 5.83106 12.83 5.77106Z" fill="white"/>
<path d="M20.5503 3.04123C20.5503 3.17123 20.6603 3.27124 20.7803 3.27124C20.9103 3.27124 21.0103 3.16123 21.0103 3.04123C21.0103 2.91123 20.9003 2.81124 20.7703 2.81124C20.6503 2.80124 20.5503 2.90123 20.5503 3.04123Z" fill="white"/>
<path d="M20.1902 3.27104C20.3202 3.27104 20.4202 3.16103 20.4202 3.04103C20.4202 2.91103 20.3102 2.81104 20.1802 2.81104C20.0502 2.81104 19.9502 2.92103 19.9502 3.05103C19.9502 3.17103 20.0602 3.27104 20.1902 3.27104Z" fill="white"/>
<path d="M20.4705 2.76127C20.6005 2.76127 20.7005 2.65127 20.7005 2.53127C20.7005 2.40127 20.5905 2.30127 20.4605 2.30127C20.3305 2.30127 20.2305 2.41127 20.2305 2.54127C20.2305 2.66127 20.3405 2.77127 20.4705 2.76127Z" fill="white"/>
<path d="M22.1204 3.30126C22.2504 3.31126 22.3604 3.21126 22.3704 3.08126C22.3804 2.95126 22.2804 2.84126 22.1504 2.83126C22.0204 2.82126 21.9104 2.92126 21.9004 3.05126C21.9004 3.19126 22.0004 3.29126 22.1204 3.30126Z" fill="white"/>
<path d="M21.5301 3.27098C21.6601 3.28098 21.7701 3.18098 21.7801 3.05098C21.7901 2.92098 21.6901 2.81098 21.5601 2.80098C21.4301 2.79098 21.3201 2.89098 21.3101 3.02098C21.3101 3.15098 21.4001 3.26098 21.5301 3.27098Z" fill="white"/>
<path d="M14.9701 6.16104L14.4201 4.81104L13.9901 4.98104L14.4101 6.01104C13.8501 6.25104 13.2501 6.57104 12.9601 6.74104C12.7301 6.87104 12.6201 6.83103 12.5001 6.61103L12.3301 6.30103L11.8501 6.56104L11.9601 6.76104C12.2401 7.28104 12.6101 7.31104 13.0701 7.08104C13.6701 6.74104 14.3101 6.43104 14.9701 6.16104Z" fill="white"/>
<path d="M18.5202 4.82127C18.5702 4.71127 18.6202 4.58127 18.6302 4.45127L18.6802 4.02127L18.8202 4.00127C19.0202 3.97127 19.2102 4.10127 19.2402 4.35127L19.2902 4.73127C19.0402 4.75127 18.7802 4.78127 18.5202 4.82127ZM23.9402 5.29127C24.1202 5.33127 24.2902 5.29127 24.4002 5.18127L24.5002 5.40127C24.8102 5.47127 25.1202 5.55127 25.4202 5.64127L25.7902 4.23127L25.2502 4.09127L24.9802 5.14127C24.8302 5.10127 24.6802 5.06127 24.5202 5.03127C24.5502 4.98127 24.5702 4.92127 24.5802 4.86127L24.7302 4.11127L24.1902 4.00127L24.0002 4.93127C23.8202 4.90127 23.6302 4.86127 23.4502 4.83127L23.5802 3.92127L23.0302 3.84127L22.9002 4.75127C22.7002 4.73127 22.4402 4.70127 22.2402 4.68127L22.3302 3.60127L21.7802 3.56127L21.6902 4.65127C21.4602 4.64127 21.2402 4.63127 21.0102 4.63127V3.54127H20.4602L20.4502 4.63127C20.2502 4.64127 20.0402 4.65127 19.8402 4.66127L19.7902 4.29127C19.7202 3.75127 19.2402 3.55127 18.7702 3.61127L18.1302 3.71127L18.0802 4.43127C18.0402 4.72127 17.9602 4.90127 17.7302 4.93127L17.4602 4.99127L16.9702 3.05127L16.4302 3.18127L16.8802 4.95127C16.9502 5.27127 17.2102 5.42127 17.5302 5.35127C17.6202 5.33127 17.7102 5.31127 17.8102 5.29127C18.1302 5.23127 18.3602 5.10127 18.4802 4.87127L18.7402 5.14127C19.3102 5.06127 19.8902 5.01127 20.4802 5.00127C20.6602 5.00127 20.7802 4.92127 20.8802 4.81127L21.0402 5.00127C21.2602 5.00127 21.4702 5.01127 21.6802 5.02127C21.8602 5.03127 22.0102 4.97127 22.1202 4.86127L22.2402 5.06127C22.8202 5.11127 23.3902 5.19127 23.9402 5.29127Z" fill="white"/>
<path d="M28.4304 4.25117L27.9204 4.03117L27.1504 5.88117C26.9904 5.81117 26.8304 5.75117 26.6604 5.69117L27.1904 4.14117L26.6704 3.95117L26.1404 5.50117C26.0104 5.46117 25.8804 5.41117 25.7504 5.37117L25.6504 5.72117C26.2904 5.92117 26.9104 6.16117 27.5104 6.43117L28.4304 4.25117Z" fill="white"/>
<path d="M14.9604 3.64111L15.8004 5.85111L15.2804 6.04111L14.4404 3.83111L14.9604 3.64111Z" fill="white"/>
<path d="M16.6803 5.52115C16.8203 5.99115 16.6703 6.35115 16.1603 6.59115L15.9403 6.30115C16.1603 6.18115 16.2603 6.05115 16.1903 5.80115L15.7603 4.34115L16.2903 4.18115L16.6803 5.52115Z" fill="white"/>
<path d="M29.3904 4.71119L28.3503 6.85119L27.8604 6.59119L28.8904 4.47119L29.3904 4.71119Z" fill="white"/>
<path d="M4.62026 13.4011C4.50026 13.3511 4.36026 13.4011 4.31026 13.5211C4.26026 13.6411 4.31026 13.7711 4.43026 13.8311C4.55026 13.8811 4.68026 13.8311 4.74026 13.7211C4.79026 13.6011 4.74026 13.4611 4.62026 13.4011Z" fill="white"/>
<path d="M4.87026 12.861C4.75026 12.811 4.61026 12.861 4.56026 12.981C4.51026 13.101 4.56026 13.231 4.68026 13.291C4.80026 13.341 4.93026 13.291 4.99026 13.181C5.04026 13.051 4.99026 12.921 4.87026 12.861Z" fill="white"/>
<path d="M7.0701 12.4413L7.0401 12.4813C6.9901 12.3713 6.8801 12.2313 6.8001 12.1513C6.7301 12.0713 6.5001 11.8213 6.5001 11.8213L6.5801 11.7013C6.6901 11.5313 6.9001 11.4613 7.1201 11.6013L7.4801 11.8213C7.3301 12.0213 7.2001 12.2313 7.0701 12.4413ZM6.1401 14.1713C6.0601 14.3513 5.8801 14.4113 5.7001 14.3313C5.5201 14.2413 5.4501 14.0713 5.5401 13.8913L5.6801 13.6013L6.1001 13.8213C6.1601 13.8513 6.2201 13.8713 6.2801 13.8913L6.1401 14.1713ZM8.0801 11.5413C8.0301 11.5113 7.8101 11.3813 7.4301 11.1413C6.9801 10.8513 6.5101 11.0913 6.2601 11.5013L5.9501 12.0013L6.4501 12.5713C6.6501 12.7813 6.7601 12.9613 6.6501 13.1713L6.6401 13.1913L6.6101 13.2513L6.5201 13.4313L5.4001 12.8513L5.1501 13.3413L5.3401 13.4413L5.1401 13.8213C4.9501 14.1913 5.0501 14.6113 5.4301 14.8113C5.8101 15.0013 6.2201 14.8413 6.4101 14.4613L6.4301 14.4113C6.4601 14.3513 6.4801 14.2913 6.5101 14.2313L6.5701 14.1013L6.4501 13.8813C6.6001 13.8513 6.7201 13.7613 6.8101 13.6213C6.8501 13.5513 6.9701 13.3113 6.9701 13.3113C7.1201 13.0213 7.1501 12.8113 7.0701 12.5613L7.4501 12.5013C7.6501 12.1613 7.8601 11.8513 8.0801 11.5413Z" fill="white"/>
<path d="M8.46037 9.39135C8.52037 9.27135 8.60037 9.15135 8.68037 9.06135C8.85037 8.89135 9.05037 8.85135 9.20037 9.00135C9.31037 9.10135 9.35037 9.27135 9.29037 9.46135C9.08037 9.48135 8.54037 9.40135 8.46037 9.39135ZM9.16037 10.2313C9.32037 10.0613 9.38037 9.90135 9.45037 9.74135C9.58037 9.70135 9.73037 9.65135 9.88037 9.49135C10.2304 9.12135 10.6204 8.80135 11.0204 8.49135L9.55037 6.63135L9.12037 6.98135L10.3804 8.57135C10.1504 8.77135 9.93037 8.97135 9.71037 9.18135C9.74037 8.92135 9.66037 8.67135 9.52037 8.54135C9.29037 8.32135 8.90037 8.33135 8.51037 8.73135C8.31037 8.94135 8.16037 9.21135 8.05037 9.43135C8.05037 9.43135 8.11037 9.69135 8.11037 9.71135C8.12037 9.74135 8.18037 9.77135 8.24037 9.79135C8.29037 9.80135 8.80037 9.90135 8.99037 9.92135C8.75037 10.1813 8.52037 10.4513 8.30037 10.7313L6.72037 9.46135L6.38037 9.90135L7.79037 11.0413C8.05037 11.2513 8.36037 11.2113 8.56037 10.9613C8.74037 10.7013 8.94037 10.4613 9.16037 10.2313Z" fill="white"/>
<path d="M10.3502 6.01123L11.7202 7.94123L11.2802 8.27123L9.91016 6.34123L10.3502 6.01123Z" fill="white"/>
<path d="M5.55012 27.9011C5.59012 27.9811 5.64012 28.0411 5.71012 28.0611C5.78012 28.0811 5.85012 28.0812 5.94012 28.0412C6.02012 28.0012 6.08012 27.9512 6.11012 27.8812C6.14012 27.8112 6.13012 27.7411 6.09012 27.6511L5.93012 27.3012L5.39012 27.5412L5.55012 27.9011ZM6.57012 28.1112C6.50012 28.2812 6.36012 28.4112 6.15012 28.5112C5.94012 28.6112 5.74012 28.6212 5.57012 28.5712C5.40012 28.5112 5.27012 28.3812 5.18012 28.1812L4.99012 27.7512L4.33012 28.0512L4.12012 27.5912L6.13012 26.6812L6.53012 27.5712C6.63012 27.7612 6.64012 27.9512 6.57012 28.1112Z" fill="white"/>
<path d="M6.19037 30.7811C6.04037 30.7811 5.90037 30.7511 5.78037 30.6711C5.66037 30.5911 5.55037 30.4811 5.46037 30.3311C5.32037 30.1111 5.28037 29.8911 5.32037 29.6811C5.36037 29.4711 5.50037 29.2911 5.75037 29.1411L6.94037 28.4111L7.20037 28.8411L6.06037 29.5411C5.80037 29.7011 5.74037 29.8811 5.87037 30.0911C6.00037 30.3011 6.19037 30.3311 6.45037 30.1711L7.59037 29.4711L7.85037 29.9011L6.66037 30.6311C6.49037 30.7311 6.34037 30.7811 6.19037 30.7811Z" fill="white"/>
<path d="M7.95031 31.4812C8.00031 31.5412 8.05031 31.5712 8.10031 31.5712C8.15031 31.5712 8.21031 31.5612 8.27031 31.5112C8.33031 31.4712 8.36031 31.4112 8.37031 31.3612C8.38031 31.3012 8.36031 31.2512 8.31031 31.1912L8.02031 30.8212L7.66031 31.1112L7.95031 31.4812ZM7.28031 32.0512C7.33031 32.1112 7.38031 32.1511 7.44031 32.1511C7.50031 32.1611 7.56031 32.1312 7.62031 32.0912C7.68031 32.0412 7.72031 31.9912 7.72031 31.9312C7.73031 31.8712 7.71031 31.8112 7.66031 31.7512L7.35031 31.3612L6.97031 31.6712L7.28031 32.0512ZM8.87031 31.4512C8.86031 31.6012 8.78031 31.7312 8.64031 31.8512C8.56031 31.9212 8.48031 31.9512 8.39031 31.9712C8.31031 31.9812 8.22031 31.9712 8.14031 31.9412L8.13031 31.9512C8.15031 32.0512 8.15031 32.1512 8.12031 32.2512C8.09031 32.3512 8.02031 32.4312 7.93031 32.5112C7.77031 32.6412 7.61031 32.7012 7.45031 32.6912C7.29031 32.6812 7.15031 32.5912 7.02031 32.4412L6.32031 31.5712L8.04031 30.1812L8.72031 31.0212C8.83031 31.1512 8.88031 31.3012 8.87031 31.4512Z" fill="white"/>
<path d="M7.78027 33.3012L9.32027 31.7212L9.68027 32.0712L8.47027 33.3112L9.19027 34.0112L8.85027 34.3512L7.78027 33.3012Z" fill="white"/>
<path d="M10.548 32.8808L9.12695 34.5732L9.50985 34.8947L10.9309 33.2023L10.548 32.8808Z" fill="white"/>
<path d="M11.5504 35.931C11.4104 35.991 11.2604 36.011 11.1104 36.001C10.9604 35.981 10.8104 35.931 10.6704 35.831C10.5104 35.721 10.3904 35.581 10.3204 35.421C10.2504 35.261 10.2204 35.081 10.2504 34.891C10.2804 34.701 10.3604 34.501 10.5004 34.311C10.6404 34.111 10.7904 33.971 10.9604 33.871C11.1304 33.781 11.3104 33.741 11.4804 33.751C11.6604 33.761 11.8304 33.821 11.9904 33.931C12.1304 34.031 12.2304 34.141 12.3004 34.281C12.3704 34.421 12.4004 34.551 12.4004 34.701C12.4004 34.851 12.3704 34.981 12.3104 35.101L11.8604 34.881C11.9104 34.781 11.9204 34.671 11.9004 34.571C11.8804 34.471 11.8204 34.381 11.7304 34.321C11.6604 34.271 11.5804 34.241 11.4804 34.241C11.3904 34.241 11.2904 34.261 11.1904 34.321C11.0904 34.381 11.0004 34.471 10.9104 34.601C10.8204 34.731 10.7704 34.841 10.7504 34.961C10.7304 35.071 10.7404 35.171 10.7704 35.261C10.8104 35.341 10.8604 35.411 10.9304 35.461C11.0304 35.531 11.1304 35.551 11.2304 35.531C11.3304 35.511 11.4304 35.451 11.5304 35.351L11.9204 35.681C11.8104 35.791 11.6904 35.881 11.5504 35.931Z" fill="white"/>
<path d="M13.4862 34.9056L12.4775 36.8721L12.9224 37.1003L13.9311 35.1338L13.4862 34.9056Z" fill="white"/>
<path d="M15.0704 38.011L14.5404 37.811L14.3904 36.191H14.3804L13.8504 37.531L13.4204 37.361L14.2404 35.311L14.7704 35.521L14.9304 37.101H14.9404L15.4604 35.791L15.8804 35.961L15.0704 38.011Z" fill="white"/>
<path d="M17.9801 36.5112L16.7801 38.4912L16.1901 38.3413L16.0801 36.0312L16.6001 36.1613L16.6301 37.8312L16.6401 37.8413L17.4701 36.3813L17.9801 36.5112Z" fill="white"/>
<path d="M18.5802 37.451L19.5102 37.571L19.4602 38.001L18.5302 37.881L18.4702 38.331L19.4502 38.461L19.3902 38.921L17.9102 38.731L18.1902 36.541L19.6702 36.721L19.6102 37.171L18.6302 37.041L18.5802 37.451Z" fill="white"/>
<path d="M20.9101 37.211C20.8501 37.161 20.7701 37.131 20.6801 37.131C20.5901 37.131 20.5201 37.151 20.4701 37.191C20.4201 37.231 20.3901 37.281 20.3901 37.341C20.3901 37.391 20.4101 37.441 20.4501 37.471C20.4901 37.501 20.5501 37.531 20.6301 37.551L20.9301 37.641C21.0701 37.681 21.1701 37.721 21.2601 37.771C21.3401 37.811 21.4101 37.881 21.4701 37.971C21.5301 38.061 21.5501 38.191 21.5501 38.351C21.5501 38.581 21.4601 38.751 21.3101 38.861C21.1501 38.971 20.9501 39.021 20.7101 39.021C20.4701 39.021 20.2601 38.951 20.1001 38.821C19.9401 38.691 19.8501 38.511 19.8301 38.271L20.3301 38.221C20.3401 38.341 20.3801 38.431 20.4501 38.501C20.5201 38.561 20.6101 38.591 20.7201 38.591C20.8101 38.591 20.8901 38.571 20.9501 38.531C21.0101 38.491 21.0401 38.431 21.0401 38.361C21.0401 38.291 21.0201 38.241 20.9801 38.211C20.9401 38.181 20.8601 38.141 20.7601 38.111L20.4801 38.021C20.3601 37.981 20.2601 37.941 20.1801 37.901C20.1001 37.861 20.0401 37.791 19.9801 37.711C19.9301 37.621 19.9001 37.511 19.9001 37.371C19.9001 37.151 19.9801 36.991 20.1301 36.871C20.2801 36.761 20.4701 36.701 20.7101 36.711C20.9301 36.711 21.1101 36.781 21.2501 36.901C21.3901 37.021 21.4801 37.191 21.5001 37.411L21.0201 37.441C21.0001 37.341 20.9601 37.261 20.9101 37.211Z" fill="white"/>
<path d="M23.3703 37.0811L22.7603 37.1411L22.9203 38.8611L22.4203 38.9111L22.2603 37.1911L21.6504 37.2511L21.6104 36.7611L23.3204 36.6011L23.3703 37.0811Z" fill="white"/>
<path d="M25.56 36.1113L26.06 38.2613L25.61 38.3713L25.26 36.8613H25.25L25.22 38.4613L24.88 38.5413L24.14 37.1213H24.13L24.49 38.6313L24.04 38.7313L23.54 36.5813L24.25 36.4113L24.85 37.6413H24.86L24.85 36.2713L25.56 36.1113Z" fill="white"/>
<path d="M26.6601 36.6114L27.5401 36.2814L27.6901 36.6814L26.8201 37.0214L26.9801 37.4414L27.9001 37.0914L28.0701 37.5214L26.6801 38.0514L25.8901 35.9814L27.2801 35.4614L27.4401 35.8814L26.5201 36.2314L26.6601 36.6114Z" fill="white"/>
<path d="M30.1801 36.451L29.6801 36.721L28.3501 35.791L28.3401 35.801L29.0201 37.071L28.6201 37.281L27.5801 35.331L28.0801 35.061L29.3901 35.961H29.4001L28.7401 34.711L29.1401 34.501L30.1801 36.451Z" fill="white"/>
<path d="M31.0303 33.7911L30.5303 34.1411L31.5203 35.5511L31.1103 35.8411L30.1203 34.4211L29.6203 34.7711L29.3403 34.3811L30.7503 33.3911L31.0303 33.7911Z" fill="white"/>
<path d="M32.0604 32.8313L32.3904 33.1813L33.0604 32.5313L33.3604 32.8413L32.6904 33.4913L33.2704 34.1013L32.9104 34.4513L31.3804 32.8513L32.4604 31.8213L32.7704 32.1513L32.0604 32.8313Z" fill="white"/>
<path d="M35.1304 31.5713C35.1804 31.7113 35.1904 31.8512 35.1604 31.9912C35.1304 32.1312 35.0504 32.2712 34.9504 32.4012C34.7804 32.6012 34.5904 32.7213 34.3804 32.7513C34.1704 32.7813 33.9504 32.7113 33.7304 32.5312L32.6504 31.6413L32.9704 31.2513L34.0104 32.1012C34.2404 32.2912 34.4404 32.2912 34.6004 32.1012C34.7604 31.9112 34.7204 31.7213 34.4904 31.5213L33.4504 30.6712L33.7704 30.2812L34.8504 31.1712C34.9804 31.2912 35.0804 31.4213 35.1304 31.5713Z" fill="white"/>
<path d="M36.7504 29.7013L36.4504 30.1712L34.8404 30.0413L34.8304 30.0513L36.0504 30.8112L35.8104 31.2013L33.9404 30.0312L34.2404 29.5413L35.8204 29.6712L35.8304 29.6613L34.6304 28.9113L34.8704 28.5312L36.7504 29.7013Z" fill="white"/>
<path d="M36.9605 28.2514C37.0405 28.0814 37.0505 27.9414 37.0005 27.8114C36.9505 27.6814 36.8105 27.5714 36.5905 27.4714C36.3705 27.3714 36.2005 27.3414 36.0705 27.3914C35.9405 27.4314 35.8405 27.5414 35.7705 27.7114L35.6505 27.9714L36.8505 28.5114L36.9605 28.2514ZM35.9305 26.9114C36.1705 26.8214 36.4605 26.8614 36.8005 27.0114C37.1405 27.1614 37.3605 27.3614 37.4505 27.5914C37.5405 27.8314 37.5305 28.0814 37.4005 28.3614L37.0405 29.1514L35.0205 28.2414L35.3805 27.4514C35.5105 27.1714 35.6905 26.9914 35.9305 26.9114Z" fill="white"/>
<path d="M20.9303 1.56121C10.2503 1.56121 1.60027 10.2112 1.60027 20.8912C1.60027 31.5712 10.2503 40.2212 20.9303 40.2212C31.6103 40.2212 40.2603 31.5712 40.2603 20.8912C40.2603 10.2112 31.6103 1.56121 20.9303 1.56121ZM41.8303 20.8912C41.8303 32.4312 32.4703 41.7912 20.9303 41.7912C9.39028 41.7912 0.0302734 32.4312 0.0302734 20.8912C0.0302734 9.35121 9.39028 -0.00878906 20.9303 -0.00878906C32.4703 -0.00878906 41.8303 9.35121 41.8303 20.8912Z" fill="white"/>
<path d="M20.9304 34.8313C13.2304 34.8313 6.99035 28.5913 6.99035 20.8913C6.99035 13.1913 13.2304 6.95129 20.9304 6.95129C28.6304 6.95129 34.8703 13.1913 34.8703 20.8913C34.8703 28.5913 28.6304 34.8313 20.9304 34.8313ZM20.9304 6.32129C12.8804 6.32129 6.36035 12.8413 6.36035 20.8913C6.36035 28.9413 12.8804 35.4613 20.9304 35.4613C28.9804 35.4613 35.5004 28.9413 35.5004 20.8913C35.5004 12.8413 28.9704 6.32129 20.9304 6.32129Z" fill="white"/>
<path d="M33.3001 21.0412V21.0112C28.7601 20.3812 24.6301 21.9412 20.9301 25.2712C17.2301 21.9512 13.1001 20.3812 8.56006 21.0112V21.0412C13.3001 21.2512 17.2601 23.6912 20.4301 26.6712C21.0501 27.2512 22.0301 28.2412 22.5001 28.8112L22.2601 29.0212C22.0501 29.2012 22.0201 29.5212 22.2001 29.7312C22.3801 29.9412 22.7001 29.9712 22.9101 29.7912L23.1501 29.5912C23.3101 29.7812 23.4501 29.9612 23.5101 30.0412C23.5101 30.0412 24.0101 30.7912 24.5301 31.5112C25.7801 33.2712 27.4001 32.5912 27.5501 31.7112C27.7001 30.8012 26.8801 30.4112 26.2001 30.5212C26.2001 30.5212 26.0701 30.5212 25.9201 30.4812C25.4401 30.2812 24.6701 29.4112 24.1401 28.7612L24.6101 28.3612C24.8201 28.1812 24.8501 27.8612 24.6701 27.6512C24.4901 27.4412 24.1701 27.4112 23.9601 27.5912L23.5101 27.9712C22.9901 27.3512 22.4601 26.7612 21.9201 26.2212C24.6501 23.7612 28.5601 21.2412 33.3001 21.0412Z" fill="white"/>
<path d="M23.4101 11.9811L26.2301 12.2511C25.9501 11.1811 24.7301 10.7511 23.4901 10.9111C23.8701 10.5311 24.8401 10.2611 25.7301 10.3211C24.9001 9.39109 23.8501 9.35109 22.5801 9.92109L23.6901 8.80109C22.7801 8.43109 21.8801 8.94109 21.4501 9.57109C21.4501 9.28109 21.1901 8.08109 20.9301 7.87109C20.6701 8.08109 20.4101 9.28109 20.4101 9.57109C19.9701 8.94109 19.0701 8.44109 18.1701 8.80109L19.2801 9.92109C18.0101 9.35109 16.9601 9.39109 16.1301 10.3211C17.0101 10.2611 17.9901 10.5311 18.3601 10.9111C17.1201 10.7611 15.9001 11.1811 15.6201 12.2511L18.4401 11.9811C17.3901 12.2911 16.5201 12.5911 16.2201 14.3911L19.1001 12.9111C18.2301 13.5211 17.8401 15.3511 18.4801 16.1011C18.7001 15.6211 19.7701 13.7711 20.2101 13.4011C20.5501 16.0711 20.3101 20.4011 20.1301 21.2911L19.8901 21.6211C19.3501 21.6311 18.3501 21.6711 17.8001 21.7711V21.7811C18.1501 21.9711 18.5001 22.1811 18.8301 22.4011C19.9301 22.2711 21.3701 22.2511 22.0301 22.5211C21.2401 22.5111 20.3301 22.6811 19.5301 22.8711C19.9801 23.1911 20.3501 23.4711 20.5401 23.6311C20.6501 23.7211 20.7901 23.7611 20.9301 23.7611C21.0701 23.7611 21.2101 23.7211 21.3201 23.6311C21.7201 23.3011 22.9001 22.4111 24.0501 21.7811V21.7711C23.4901 21.6711 22.5001 21.6311 21.9601 21.6211L21.7201 21.2911C21.5401 20.4011 21.3001 16.0711 21.6401 13.4011C22.0801 13.7711 23.1501 15.6211 23.3701 16.1011C24.0101 15.3511 23.6301 13.5211 22.7501 12.9111L25.6201 14.3911C25.3201 12.5911 24.4601 12.3011 23.4101 11.9811Z" fill="white"/>
<path d="M19.3503 28.8114C19.6103 28.5014 20.0103 28.0614 20.4303 27.6314C20.2603 27.4614 20.0903 27.3014 19.9503 27.1714C19.7803 27.0214 19.6203 26.8614 19.4403 26.7114C19.0703 27.1114 18.7003 27.5214 18.3403 27.9614L17.8903 27.5814C17.6803 27.4014 17.3603 27.4314 17.1803 27.6414C17.0003 27.8514 17.0303 28.1714 17.2403 28.3514L17.7103 28.7514C17.1903 29.3914 16.4203 30.2714 15.9303 30.4714C15.7803 30.5214 15.6503 30.5114 15.6503 30.5114C14.9703 30.4114 14.1403 30.7914 14.3003 31.7014C14.4503 32.5814 16.0703 33.2614 17.3203 31.5014C17.8303 30.7814 18.3403 30.0314 18.3403 30.0314C18.4003 29.9514 18.5403 29.7714 18.7003 29.5814L18.9403 29.7814C19.1503 29.9614 19.4703 29.9314 19.6503 29.7214C19.8303 29.5114 19.8003 29.1914 19.5903 29.0114L19.3503 28.8114Z" fill="white"/>
</svg>
