<svg width="169" height="91" viewBox="0 0 169 91" fill="none" xmlns="http://www.w3.org/2000/svg">
<g clip-path="url(#clip0_3279_11494)">
<path d="M149.234 41.6642C148.191 41.6642 146.196 43.7775 146.196 44.9916V56.8485H142.121V42.3957C142.121 41.8928 141.698 41.6591 141.355 41.6591C140.312 41.6591 138.317 43.7724 138.317 44.9865V56.8434H127.819V46.409C127.819 45.906 127.395 45.6723 127.053 45.6723C126.01 45.6723 124.015 47.7857 124.015 48.9998V56.8434H111.567V51.5348C111.567 49.4265 110.232 48.949 108.887 48.949H75.9194V42.3906C75.9194 41.8877 75.4962 41.654 75.1537 41.654C74.1108 41.654 72.1159 43.7673 72.1159 44.9814V56.8384H60.1662V48.7153C60.1662 47.9431 59.733 47.3081 59.204 46.7544C58.4786 45.9822 57.9647 45.6622 57.1033 45.6622H50.2771C49.0176 45.6622 47.9899 46.6934 47.9899 47.9685V57.8188C47.9899 59.0888 49.0126 60.1252 50.2771 60.1252H52.1662C54.2569 60.1252 55.5365 57.6461 55.5365 56.8384H51.7935V48.949H55.4207C55.9194 48.949 56.3728 49.3554 56.3728 49.9091V60.1252V68.0907C56.3728 68.5937 56.796 68.8274 57.1385 68.8274C58.1814 68.8274 60.1763 66.714 60.1763 65.4999V60.1303C63.0781 60.1303 145.778 60.1303 145.783 60.1303C146.967 60.1303 147.673 59.6883 148.67 58.6265C149.406 57.8595 150 56.9857 150 55.9138V42.3957C150 41.8928 149.577 41.6591 149.234 41.6591V41.6642ZM107.773 55.8935C107.773 56.3964 107.37 56.8536 106.821 56.8536C102.433 56.8536 75.9244 56.8536 75.9244 56.8536V52.246H107.768V55.8935H107.773ZM60.5894 12.8804L59.7884 12.1895L60.529 11.5748C60.8262 11.3259 61.1033 11.0465 61.3501 10.7468L61.9597 10L62.6448 10.8077C62.8564 11.0567 63.0831 11.2853 63.33 11.4986L64.131 12.1895L63.3904 12.8042C63.0932 13.0531 62.8161 13.3325 62.5693 13.6323L61.9597 14.379L61.2746 13.5713C61.063 13.3224 60.8363 13.0938 60.5894 12.8804ZM26.4584 33.3684L25.7733 32.5606L25.1637 33.3074C24.9169 33.6071 24.6398 33.8865 24.3426 34.1355L23.602 34.7502L24.403 35.4411C24.6499 35.6544 24.8766 35.883 25.0882 36.1319L25.7733 36.9397L26.3829 36.1929C26.6297 35.8932 26.9068 35.6138 27.204 35.3649L27.9446 34.7502L27.1436 34.0593C26.8967 33.8459 26.67 33.6173 26.4584 33.3684ZM43.4559 35.3699L44.1965 34.7552L43.3904 34.0644C43.1436 33.851 42.9169 33.6224 42.7053 33.3735L42.0202 32.5657L41.4106 33.3125C41.1637 33.6122 40.8867 33.8916 40.5894 34.1406L39.8489 34.7552L40.6499 35.4461C40.8967 35.6595 41.1234 35.8881 41.335 36.137L41.7128 36.5841L41.4106 36.9549C41.1637 37.2546 40.8867 37.534 40.5894 37.783L39.8489 38.3977L40.6499 39.0886C40.8967 39.3019 41.1234 39.5305 41.335 39.7794L42.0202 40.5872L42.6297 39.8404C42.8766 39.5407 43.1537 39.2613 43.4509 39.0124L44.1914 38.3977L43.3854 37.7068C43.1385 37.4934 42.9118 37.2648 42.7003 37.0159L42.3224 36.5688L42.6247 36.198C42.8715 35.8983 43.1486 35.6189 43.4458 35.3699H43.4559ZM83.0327 13.6678C81.9899 13.6678 79.995 15.7811 79.995 16.9953V31.4024C79.995 31.9053 80.4181 32.139 80.7607 32.139C81.8035 32.139 83.7985 30.0257 83.7985 28.8115V14.4044C83.7985 13.9015 83.3753 13.6678 83.0327 13.6678ZM124.494 41.7759L123.753 42.3906L124.559 43.0815C124.806 43.2949 125.033 43.5235 125.244 43.7724L125.929 44.5801L126.539 43.8333C126.786 43.5336 127.063 43.2542 127.36 43.0053L128.101 42.3906L127.295 41.6997C127.048 41.4864 126.821 41.2577 126.61 41.0088L126.232 40.5618L126.534 40.1909C126.781 39.8912 127.058 39.6118 127.355 39.3629L128.096 38.7482L127.29 38.0573C127.043 37.8439 126.816 37.6153 126.605 37.3664L125.919 36.5587L125.31 37.3054C125.063 37.6052 124.786 37.8846 124.489 38.1335L123.748 38.7482L124.554 39.4391C124.801 39.6524 125.028 39.881 125.239 40.13L125.617 40.577L125.315 40.9479C125.068 41.2476 124.791 41.527 124.494 41.7759ZM42.3627 61.9794L41.7531 61.2326L41.068 62.0404C40.8564 62.2893 40.6297 62.5179 40.3829 62.7313L39.9395 63.1123L39.5718 62.8075C39.2746 62.5585 38.9975 62.2791 38.7506 61.9794L38.1411 61.2326L37.4559 62.0404C37.2443 62.2893 37.0176 62.5179 36.7708 62.7313L35.9698 63.4221L36.7103 64.0368C37.0076 64.2858 37.2846 64.5652 37.5315 64.8649L38.1411 65.6117L38.8262 64.8039C39.0378 64.555 39.2645 64.3264 39.5113 64.113L39.9547 63.732L40.3224 64.0368C40.6196 64.2858 40.8967 64.5652 41.1436 64.8649L41.7531 65.6117L42.4383 64.8039C42.6499 64.555 42.8766 64.3264 43.1234 64.113L43.9295 63.4221L43.1889 62.8075C42.8917 62.5585 42.6146 62.2791 42.3678 61.9794H42.3627ZM81.8942 81.1466H80.1411V75.2333H81.8942V81.1466ZM117.602 78.9012H115.844V75.2333H117.602V78.9012ZM106.544 81.1466H103.965V74.3748H102.453V81.8527C102.453 81.934 102.519 82 102.599 82H105.743C105.965 82 106.035 81.9644 106.136 81.8984C106.222 81.8425 106.302 81.7562 106.378 81.6596C106.469 81.5428 106.549 81.431 106.615 81.3142C106.665 81.2278 106.635 81.1415 106.544 81.1415V81.1466ZM82.8816 74.9743C82.4836 74.5475 82.2015 74.3748 81.7229 74.3748H78.6297V81.8527C78.6297 81.934 78.6952 82 78.7758 82H81.7229C82.1965 82 82.4786 81.8273 82.8816 81.4006C83.1738 81.0958 83.4106 80.7452 83.4106 80.3236V76.0512C83.4106 75.6245 83.1738 75.2791 82.8816 74.9743ZM143.96 74.3748V75.2333H146.554C146.373 75.4772 146.247 75.7464 146.247 76.0563V81.8578C146.247 81.939 146.312 82.0051 146.393 82.0051H147.758V75.2333H150V74.3748H143.96ZM134.599 75.2283V74.3697H130.932C130.851 74.3697 130.786 74.4358 130.786 74.517V81.9949H134.599V81.1364H132.297V79.3076H133.32C133.542 79.3076 133.612 79.272 133.713 79.206C133.798 79.1501 133.879 79.0637 133.955 78.9672C134.045 78.8504 134.126 78.7386 134.191 78.6218C134.242 78.5354 134.212 78.449 134.121 78.449H132.297V75.2181H134.599V75.2283ZM93.3048 81.1466H92.3678L91.4559 74.5018C91.4458 74.4358 91.3854 74.3748 91.3098 74.3748H89.9395L90.9723 82.0051H93.1285C93.602 82.0051 93.8841 81.8324 94.2871 81.4056C94.5793 81.1008 94.7607 80.7706 94.8161 80.3287L95.5718 74.3799H94.0604L93.3048 81.1516V81.1466ZM84.9572 74.3748C84.8766 74.3748 84.8111 74.4408 84.8111 74.5221V82H88.6247V81.1415H86.3224V79.3126H87.3451C87.5667 79.3126 87.6373 79.2771 87.738 79.211C87.8237 79.1552 87.9043 79.0688 87.9799 78.9723C88.0705 78.8554 88.1511 78.7437 88.2166 78.6268C88.267 78.5405 88.2368 78.4541 88.1461 78.4541H86.3224V75.2232H88.6247V74.3646H84.9572V74.3748ZM100.897 75.2283V74.3697H97.2292C97.1486 74.3697 97.0831 74.4358 97.0831 74.517V81.9949H100.897V81.1364H98.5945V79.3076H99.6171C99.8388 79.3076 99.9093 79.272 100.01 79.206C100.096 79.1501 100.176 79.0637 100.252 78.9672C100.343 78.8504 100.423 78.7386 100.489 78.6218C100.539 78.5354 100.509 78.449 100.418 78.449H98.5945V75.2181H100.897V75.2283ZM72.8413 74.3748H68.8665V75.2333H71.461C71.2796 75.4772 71.1537 75.7464 71.1537 76.0563V81.8578C71.1537 81.939 71.2191 82.0051 71.2998 82.0051H72.665V75.2333H74.9068V74.3748H72.8363H72.8413ZM67.4761 74.3748H64.5088C64.0353 74.3748 63.7531 74.5475 63.3501 74.9743C63.0579 75.2791 62.8212 75.6296 62.8212 76.0512V78.8859H66.1058V81.1415H64.3325V80.0645H62.8212V81.8476C62.8212 81.9289 62.8867 81.9949 62.9673 81.9949H65.9345C66.4081 81.9949 66.6902 81.8222 67.0932 81.3955C67.3854 81.0907 67.6222 80.7402 67.6222 80.3185V78.0274H64.3375V75.2283H66.1108V77.0622H67.6222V74.517C67.6222 74.4358 67.5567 74.3697 67.4761 74.3697V74.3748ZM60.9471 74.3748H57.9799C57.5063 74.3748 57.2242 74.5475 56.8212 74.9743C56.529 75.2791 56.2922 75.6296 56.2922 76.0512V81.8527C56.2922 81.934 56.3577 82 56.4383 82H57.8035V79.2618H58.4383C58.6549 79.2618 58.7254 79.2263 58.8262 79.1602C58.9118 79.1044 58.9874 79.018 59.068 78.9266C59.1587 78.8148 59.2393 78.698 59.2998 78.5862C59.3501 78.4998 59.3199 78.4135 59.2292 78.4135H57.8035V75.2283H59.5768V82H61.0882V74.5221C61.0882 74.4408 61.0227 74.3748 60.9421 74.3748H60.9471ZM53.1688 81.1466H51.4055L51.3955 75.2333H53.1688V81.1466ZM54.534 74.3748H51.5667C51.0932 74.3748 50.8111 74.5475 50.4081 74.9743C50.1159 75.2791 49.8791 75.6296 49.8791 76.0512V81.8527C49.8791 81.934 49.9446 82 50.0252 82H52.9924C53.466 82 53.7481 81.8273 54.1511 81.4006C54.4433 81.0958 54.6801 80.7452 54.6801 80.3236V74.5221C54.6801 74.4408 54.6146 74.3748 54.534 74.3748ZM111.214 81.1466H109.451L109.441 75.2333H111.214V81.1466ZM141.189 74.3748V81.1466H140.69L140.03 75.9547C139.975 75.5178 139.804 75.2791 139.511 74.9743C139.113 74.5475 138.831 74.3748 138.353 74.3748H136.196V82.0051H137.562C137.642 82.0051 137.708 81.939 137.708 81.8578V75.2333H138.418L139.285 82.0051H141.018C141.491 82.0051 141.773 81.8324 142.176 81.4056C142.469 81.1008 142.705 80.7503 142.705 80.3287V74.3799H141.194L141.189 74.3748ZM112.579 74.3748H109.612C109.139 74.3748 108.856 74.5475 108.453 74.9743C108.161 75.2791 107.924 75.6296 107.924 76.0512V81.8527C107.924 81.934 107.99 82 108.071 82H108.388H111.033C111.506 82 111.788 81.8273 112.191 81.4006C112.484 81.0958 112.72 80.7452 112.72 80.3236V74.5221C112.72 74.4408 112.655 74.3748 112.574 74.3748H112.579ZM118.584 74.9743C118.186 74.5475 117.904 74.3748 117.426 74.3748H114.474C114.393 74.3748 114.327 74.4408 114.327 74.5221V81.8527C114.327 81.934 114.393 82 114.474 82H115.839V79.7546H117.426C117.899 79.7546 118.181 79.5819 118.584 79.1552C118.877 78.8504 119.113 78.4998 119.113 78.0782V76.0512C119.113 75.6245 118.877 75.2791 118.584 74.9743ZM128.388 74.9743C127.99 74.5475 127.708 74.3748 127.229 74.3748H125.234V75.1825C125.179 75.1114 125.113 75.0403 125.048 74.9743C124.65 74.5475 124.368 74.3748 123.889 74.3748H120.922C120.841 74.3748 120.776 74.4408 120.776 74.5221V82H122.287V75.2283H124.06V82H125.426C125.506 82 125.572 81.934 125.572 81.8527V76.0512C125.572 75.7413 125.446 75.4721 125.264 75.2283H127.395V82H128.474H128.761C128.841 82 128.907 81.934 128.907 81.8527V76.0512C128.907 75.6245 128.67 75.2791 128.378 74.9743H128.388ZM34.67 81.1466H32.0907V74.3748H30.5793V81.8527C30.5793 81.934 30.6448 82 30.7254 82H33.869C34.0907 82 34.1612 81.9644 34.262 81.8984C34.3476 81.8425 34.4282 81.7562 34.5038 81.6596C34.5945 81.5428 34.6751 81.431 34.7406 81.3142C34.7909 81.2278 34.7607 81.1415 34.67 81.1415V81.1466ZM22.6499 74.3748H19.6877C19.2141 74.3748 18.932 74.5475 18.529 74.9743C18.2368 75.2791 18 75.6296 18 76.0512V81.8527C18 81.934 18.0655 82 18.1461 82H21.1134C21.5869 82 21.869 81.8273 22.272 81.4006C22.5642 81.0958 22.801 80.7452 22.801 80.3236V78.4592H21.738C21.4156 78.4592 21.2947 78.5151 21.1537 78.6116C20.8715 78.7945 20.6045 79.1806 20.4181 79.4955C20.3426 79.6378 20.3879 79.7546 20.5239 79.7546H21.2846V81.1415H19.5113V75.2283H21.2846V76.5948H22.796V74.5221C22.796 74.4408 22.7305 74.3748 22.6499 74.3748ZM48.2267 74.3748H45.2594C44.7859 74.3748 44.5038 74.5475 44.1008 74.9743C43.8086 75.2791 43.5718 75.6296 43.5718 76.0512V81.8527C43.5718 81.934 43.6373 82 43.7179 82H43.9748H46.6851C47.1587 82 47.4408 81.8273 47.8438 81.4006C48.136 81.0958 48.3728 80.7452 48.3728 80.3236V79.7038H46.8615V81.1466H45.0882V75.2333H46.8615V76.5999H48.3728V74.5272C48.3728 74.4459 48.3073 74.3799 48.2267 74.3799V74.3748ZM36.2065 74.3748C36.1259 74.3748 36.0605 74.4408 36.0605 74.5221V82H37.5718V79.2618H38.3778C38.5945 79.2618 38.665 79.2263 38.7657 79.1602C38.8514 79.1044 38.927 79.018 39.0076 78.9266C39.0982 78.8148 39.1788 78.698 39.2393 78.5862C39.2897 78.4998 39.2594 78.4135 39.1688 78.4135H37.5718V75.2283H39.8741V74.3697H36.2065V74.3748ZM28.8867 74.3748H27.5214V81.1466H25.7481V74.3748H24.2368V81.8527C24.2368 81.934 24.3023 82 24.3829 82H27.3501C27.8237 82 28.1058 81.8273 28.5088 81.4006C28.801 81.0958 29.0378 80.7452 29.0378 80.3236V74.5221C29.0378 74.4408 28.9723 74.3748 28.8917 74.3748H28.8867ZM43.1587 45.6774C42.1159 45.6774 40.1209 47.7907 40.1209 49.0049V56.8485H21.8035V52.0936C21.8035 51.5906 21.3804 51.357 21.0378 51.357C19.995 51.357 18 53.4703 18 54.6844V68.0958C18 68.5988 18.4232 68.8324 18.7657 68.8324C19.8086 68.8324 21.8035 66.7191 21.8035 65.505V60.1353H39.6927C40.8867 60.1353 41.5919 59.6984 42.5995 58.6316C43.335 57.8645 43.9295 56.9908 43.9295 55.9189V46.414C43.9295 45.9111 43.5063 45.6774 43.1637 45.6774H43.1587ZM150 18.4329C150 17.93 149.577 17.6963 149.234 17.6963C148.191 17.6963 146.196 19.8096 146.196 21.0238V28.8573H143.662V19.5048C143.662 19.0019 143.239 18.7682 142.897 18.7682C141.854 18.7682 139.859 20.8815 139.859 22.0957V28.8522H137.325V20.5767C137.325 20.0738 136.902 19.8401 136.559 19.8401C135.516 19.8401 133.521 21.9534 133.521 23.1676V28.8522H127.819V14.4044C127.819 13.9015 127.395 13.6678 127.053 13.6678C126.01 13.6678 124.015 15.7811 124.015 16.9953V32.139H145.773C146.957 32.139 147.662 31.697 148.66 30.6353C149.395 29.8682 149.99 28.9944 149.99 27.9225V18.4279L150 18.4329ZM119.95 18.5345V32.1441H103.698V38.6059H92.9723C91.7783 38.6059 91.0731 38.1691 90.0655 37.1022C89.33 36.3351 88.7355 35.4614 88.7355 34.3895V26.683C88.7355 25.4638 90.7305 23.3555 91.7733 23.3555C92.1159 23.3555 92.539 23.5943 92.539 24.0921V35.3191H99.8992V17.0004C99.8992 15.7811 101.894 13.6729 102.937 13.6729C103.28 13.6729 103.703 13.9117 103.703 14.4095V28.8623H116.151V19.7284C116.151 19.1746 115.698 18.7682 115.199 18.7682H111.572V26.8557C110.227 26.8557 107.768 25.5654 107.768 23.4571V17.7928C107.768 16.5177 108.791 15.4865 110.055 15.4865C110.141 15.4865 116.882 15.4865 116.882 15.4865C117.748 15.4865 118.257 15.8015 118.982 16.5787C119.511 17.1324 119.945 17.7674 119.945 18.5396L119.95 18.5345ZM75.9244 14.4044V27.9225C75.9244 28.9893 75.3249 29.8682 74.5945 30.6353C73.597 31.697 72.8917 32.139 71.7078 32.139C71.7078 32.139 22.6801 32.139 21.8035 32.139V37.3562H32.2821C32.7809 37.3562 33.0126 37.722 33.0126 38.0167C33.0126 38.9158 30.9169 40.638 29.7128 40.638C29.6927 40.638 22.2267 40.638 22.2267 40.638C21.0428 40.638 20.3375 40.196 19.3401 39.1343C18.6045 38.3672 18.0101 37.4934 18.0101 36.4215V31.5497C18.0101 30.1933 18.4887 28.8471 20.5743 28.8471H32.2569V19.7131C32.2569 19.1594 31.8035 18.753 31.3048 18.753H27.6776V26.8405C26.3325 26.8405 23.8741 25.5501 23.8741 23.4419V17.7776C23.8741 16.5025 24.8967 15.4712 26.1612 15.4712H32.9874C33.8539 15.4712 34.3627 15.7862 35.0882 16.5635C35.6171 17.1172 36.0504 17.7522 36.0504 18.5244V28.8522H40.1259V21.0187C40.1259 19.7995 42.1209 17.6912 43.1637 17.6912C43.5063 17.6912 43.9295 17.93 43.9295 18.4279V28.8522H48.005V17.0004C48.005 15.7811 50 13.6729 51.0428 13.6729C51.3854 13.6729 51.8086 13.9117 51.8086 14.4095V28.8623H64.2569V19.7284C64.2569 19.1746 63.8035 18.7682 63.3048 18.7682H59.6776V26.8557C58.3325 26.8557 55.8741 25.5654 55.8741 23.4571V17.7928C55.8741 16.5177 56.8967 15.4865 58.1612 15.4865H64.9874C65.8539 15.4865 66.3627 15.8015 67.0882 16.5787C67.6171 17.1324 68.0504 17.7674 68.0504 18.5396V28.8674H72.1259V17.0004C72.1259 15.7811 74.1209 13.6729 75.1637 13.6729C75.5063 13.6729 75.9295 13.9117 75.9295 14.4095L75.9244 14.4044Z" fill="white"/>
</g>
<defs>
<clipPath id="clip0_3279_11494">
<rect width="132" height="72" fill="white" transform="translate(18 10)"/>
</clipPath>
</defs>
</svg>
